<?xml version="1.0" encoding="UTF-8"?>
<svg version="1.1" xmlns="http://www.w3.org/2000/svg" width="270" height="71">
<path d="M0 0 C2.97 0 5.94 0 9 0 C9.66 3.3 10.32 6.6 11 10 C11.474375 8.72125 11.94875 7.4425 12.4375 6.125 C13.21879534 4.01889951 13.99505737 2.00988527 15 0 C17.97 0 20.94 0 24 0 C24.66 2.97 25.32 5.94 26 9 C27.32 6.03 28.64 3.06 30 0 C35.94 0 41.88 0 48 0 C48 8 48 8 47 10 C49.31 10.33 51.62 10.66 54 11 C54.33 7.37 54.66 3.74 55 0 C58.3 0 61.6 0 65 0 C65 2.31 65 4.62 65 7 C65.433125 6.21625 65.86625 5.4325 66.3125 4.625 C68 2 68 2 71 0 C72.99291992 -0.22705078 72.99291992 -0.22705078 75.23046875 -0.1953125 C76.43413086 -0.18564453 76.43413086 -0.18564453 77.66210938 -0.17578125 C78.49548828 -0.15902344 79.32886719 -0.14226563 80.1875 -0.125 C81.4549707 -0.11146484 81.4549707 -0.11146484 82.74804688 -0.09765625 C84.83215243 -0.07410703 86.91611217 -0.03823647 89 0 C89.495 2.97 89.495 2.97 90 6 C90.45375 5.34 90.9075 4.68 91.375 4 C91.91125 3.34 92.4475 2.68 93 2 C93.66 2 94.32 2 95 2 C95 1.34 95 0.68 95 0 C104.57 0 114.14 0 124 0 C123.34 7.26 122.68 14.52 122 22 C131.57 22 141.14 22 151 22 C151 21.34 151 20.68 151 20 C150.34773437 20.04640625 149.69546875 20.0928125 149.0234375 20.140625 C144.66482759 20.32062659 141.49579029 20.18805839 137.375 18.625 C134.25118814 15.17236584 134.4285012 12.95430054 134.59375 8.4375 C135.00948161 5.94311032 135.74735858 4.18202054 137 2 C137.66 2 138.32 2 139 2 C139 1.34 139 0.68 139 0 C146.26 0 153.52 0 161 0 C161 2.64 161 5.28 161 8 C153.08 8.495 153.08 8.495 145 9 C145 9.33 145 9.66 145 10 C146.10408203 10.02126953 146.10408203 10.02126953 147.23046875 10.04296875 C155.1710013 10.43107932 155.1710013 10.43107932 159.1875 13.1875 C161.40718277 16.63183533 161.71117581 17.97000377 161 22 C160.36034391 23.41785675 159.67915187 24.81746567 158.96484375 26.19921875 C158.59866943 26.91295654 158.23249512 27.62669434 157.85522461 28.36206055 C157.57300049 28.90258057 157.29077637 29.44310059 157 30 C151.23429185 30.12363784 145.46935578 30.21435706 139.70263672 30.2746582 C137.74123697 30.29979604 135.77993084 30.33391165 133.81884766 30.37719727 C130.99878856 30.43788208 128.17996806 30.46621641 125.359375 30.48828125 C124.48319519 30.51408768 123.60701538 30.5398941 122.70428467 30.56648254 C116.64740779 30.5692702 116.64740779 30.5692702 113.47753906 27.78198242 C112 25 112 25 111 20 C106.38 20 101.76 20 97 20 C97 20.66 97 21.32 97 22 C101.29 22 105.58 22 110 22 C111 27 111 27 110 30 C106.91738544 30.1746397 103.83604167 30.28094067 100.75 30.375 C99.87730469 30.42527344 99.00460938 30.47554687 98.10546875 30.52734375 C95.60749468 30.58454926 93.43789766 30.55468385 91 30 C87.94346365 26.67156317 87.09543119 24.38172475 86 20 C81.71 20.33 77.42 20.66 73 21 C77.29 21.33 81.58 21.66 86 22 C86 28 86 28 85 30 C78.73 30 72.46 30 66 30 C64.68 27.36 63.36 24.72 62 22 C61.67 24.64 61.34 27.28 61 30 C58.03 30 55.06 30 52 30 C52 27.03 52 24.06 52 21 C49.69 20.67 47.38 20.34 45 20 C45.020625 21.27875 45.04125 22.5575 45.0625 23.875 C45.125 27.75 45.125 27.75 44 30 C41.03 30 38.06 30 35 30 C35.14284092 27.97895295 35.28942383 25.95817023 35.4375 23.9375 C35.51871094 22.81214844 35.59992188 21.68679687 35.68359375 20.52734375 C35.99954768 17.00504258 36.49987137 13.50090042 37 10 C34.03 16.6 31.06 23.2 28 30 C24.7 30 21.4 30 18 30 C17.67 27.03 17.34 24.06 17 21 C16.01 23.97 15.02 26.94 14 30 C10.37 30 6.74 30 3 30 C2.51171875 27.20052083 2.0234375 24.40104167 1.53515625 21.6015625 C1.12287938 19.03090344 1.12287938 19.03090344 0 17 C-0.07194869 14.11629667 -0.09291708 11.25760336 -0.0625 8.375 C-0.05798828 7.57320312 -0.05347656 6.77140625 -0.04882812 5.9453125 C-0.03703168 3.96350994 -0.01909605 1.98174567 0 0 Z M82.125 7.3125 C81.05507812 7.37050781 79.98515625 7.42851563 78.8828125 7.48828125 C75.6488303 7.77853074 75.6488303 7.77853074 73 11 C77.95 11 82.9 11 88 11 C88.33 9.68 88.66 8.36 89 7 C86.70430529 7 84.41537367 7.17244118 82.125 7.3125 Z M113 5 C112.67 5.66 112.34 6.32 112 7 C109.6015625 7.37890625 109.6015625 7.37890625 106.625 7.5625 C103.46357425 7.76686657 101.01866352 7.99377883 98 9 C98 9.66 98 10.32 98 11 C102.62 11 107.24 11 112 11 C112.33 12.32 112.66 13.64 113 15 C114.1577506 11.52674819 114.06866652 8.63932552 114 5 C113.67 5 113.34 5 113 5 Z M63 9 C64 12 64 12 64 12 Z " fill="#FFFFFF" transform="translate(69,40)"/>
<path d="M0 0 C6.99782296 4.0479428 14.3138128 4.70997063 22.24121094 4.93847656 C46.13947112 5.69252348 73.87364271 10.57116391 90.9375 28.69921875 C94.58733194 33.78686328 94.25919085 38.67049399 93.9375 44.69921875 C93.6075 44.69921875 93.2775 44.69921875 92.9375 44.69921875 C92.87433594 44.07015625 92.81117188 43.44109375 92.74609375 42.79296875 C91.56886893 34.56478682 88.34061595 30.17139019 81.88671875 25.08203125 C63.68667019 12.94866554 40.22963751 11.40545088 19.0637207 10.60839844 C7.7393643 10.06237078 -1.07811772 7.40215551 -10.5625 1.26171875 C-27.47627939 -9.20372238 -44.27332988 -12.58758082 -64.0625 -12.30078125 C-60.1025 -11.97078125 -56.1425 -11.64078125 -52.0625 -11.30078125 C-52.0625 -10.97078125 -52.0625 -10.64078125 -52.0625 -10.30078125 C-52.82167725 -10.23084961 -53.58085449 -10.16091797 -54.36303711 -10.08886719 C-71.06351403 -8.51699813 -87.13052503 -6.7819653 -103.0625 -1.30078125 C-99.15765063 -0.41381476 -95.38718172 -0.0751803 -91.390625 0.12890625 C-89.44700073 0.23585815 -89.44700073 0.23585815 -87.46411133 0.3449707 C-86.78587311 0.38192047 -86.10763489 0.41887024 -85.40884399 0.4569397 C-68.72661627 1.39021967 -53.09571361 3.73441564 -36.92114258 7.9855957 C-36.1298999 8.19273193 -35.33865723 8.39986816 -34.5234375 8.61328125 C-33.83040527 8.79842285 -33.13737305 8.98356445 -32.42333984 9.17431641 C-24.89414778 10.84833532 -17.54282064 10.8642381 -9.8515625 10.91015625 C-7.89209829 10.93105158 -5.93263411 10.95196493 -3.97318077 10.97385597 C0.81940648 11.02651333 5.61199932 11.07090703 10.40478516 11.10058594 C47.02883351 11.34050664 47.02883351 11.34050664 64.25 18.26171875 C65.04599609 18.56529297 65.84199219 18.86886719 66.66210938 19.18164062 C70.18156787 20.53800624 73.57908132 21.97768426 76.9375 23.69921875 C76.9375 24.35921875 76.9375 25.01921875 76.9375 25.69921875 C75.720625 25.28671875 74.50375 24.87421875 73.25 24.44921875 C71.48013072 23.86296692 69.70917959 23.27997679 67.9375 22.69921875 C66.91269531 22.36277344 65.88789063 22.02632812 64.83203125 21.6796875 C63.75308594 21.33550781 62.67414063 20.99132813 61.5625 20.63671875 C60.06589844 20.15525391 60.06589844 20.15525391 58.5390625 19.6640625 C49.25008517 17.17558376 40.56164626 16.45150319 30.94527817 16.64058495 C28.80359657 16.68088406 26.66226128 16.70467347 24.52029419 16.72419739 C18.43711844 16.78137516 12.35444863 16.85746842 6.27197266 16.96655273 C-11.86957381 17.28070379 -28.71967761 16.77487469 -46.459198 12.34169006 C-72.2535457 5.97587909 -97.65270864 5.38647755 -124.0625 5.69921875 C-123.0625 2.69921875 -123.0625 2.69921875 -120.078125 0.9453125 C-118.82790397 0.33217219 -117.57241081 -0.27030703 -116.3125 -0.86328125 C-115.69117188 -1.16685547 -115.06984375 -1.47042969 -114.4296875 -1.78320312 C-111.02329929 -3.43249868 -107.58189119 -4.91374924 -104.0625 -6.30078125 C-104.97314209 -6.06891113 -105.88378418 -5.83704102 -106.82202148 -5.59814453 C-140.22885573 2.85441605 -140.22885573 2.85441605 -154.0625 3.69921875 C-154.0625 3.03921875 -154.0625 2.37921875 -154.0625 1.69921875 C-152.81984375 1.45429688 -151.5771875 1.209375 -150.296875 0.95703125 C-138.48097358 -1.45686202 -126.8878729 -4.39488272 -115.29446411 -7.69445801 C-74.35780806 -19.31083642 -37.40759885 -24.28631099 0 0 Z M-84.0625 -11.30078125 C-84.0625 -10.97078125 -84.0625 -10.64078125 -84.0625 -10.30078125 C-82.0825 -10.30078125 -80.1025 -10.30078125 -78.0625 -10.30078125 C-78.0625 -10.63078125 -78.0625 -10.96078125 -78.0625 -11.30078125 C-80.0425 -11.30078125 -82.0225 -11.30078125 -84.0625 -11.30078125 Z M-90.0625 -10.30078125 C-86.0625 -9.30078125 -86.0625 -9.30078125 -86.0625 -9.30078125 Z " fill="#DD0707" transform="translate(176.0625,17.30078125)"/>
<path d="M0 0 C5.87153231 -0.09911689 11.74257413 -0.17158611 17.61474609 -0.21972656 C19.61092618 -0.23980169 21.60704775 -0.26706789 23.60302734 -0.30175781 C26.4776862 -0.35045657 29.3515654 -0.37300986 32.2265625 -0.390625 C33.55815903 -0.42159271 33.55815903 -0.42159271 34.91665649 -0.45318604 C40.46659057 -0.45518119 43.59582911 0.30005578 48 4 C51.62833663 7.81930172 52.31000458 10.88279006 52.5 16 C52.31000458 21.11720994 51.62833663 24.18069828 48 28 C43.29480696 31.80917353 39.65342031 32.55631142 33.7578125 32.390625 C32.98944061 32.38496521 32.22106873 32.37930542 31.42941284 32.37347412 C28.99395379 32.35122173 26.56000843 32.30105041 24.125 32.25 C22.4661672 32.22992042 20.80731116 32.2116722 19.1484375 32.1953125 C15.09838201 32.15139406 11.04944694 32.08244763 7 32 C7.33 30.68 7.66 29.36 8 28 C14.435 27.505 14.435 27.505 21 27 C19.18884044 25.18884044 16.38721773 25.61800552 13.9375 25.4375 C12.83277344 25.35371094 11.72804688 25.26992187 10.58984375 25.18359375 C9.73519531 25.12300781 8.88054688 25.06242187 8 25 C8 23.68 8 22.36 8 21 C11.3 20.67 14.6 20.34 18 20 C15.94077598 17.94077598 11.78291876 18.58572421 8.9375 18.4375 C7.79958008 18.37272461 7.79958008 18.37272461 6.63867188 18.30664062 C4.75934562 18.20026367 2.87969756 18.09960066 1 18 C1 16.68 1 15.36 1 14 C6.94 13.67 12.88 13.34 19 13 C19 12.67 19 12.34 19 12 C9.43 11.67 -0.14 11.34 -10 11 C-10 9.68 -10 8.36 -10 7 C-9.21761963 6.97494385 -8.43523926 6.9498877 -7.62915039 6.92407227 C-4.10675051 6.80850212 -0.5846444 6.68560051 2.9375 6.5625 C4.16919922 6.52318359 5.40089844 6.48386719 6.66992188 6.44335938 C7.83974609 6.40146484 9.00957031 6.35957031 10.21484375 6.31640625 C11.29886475 6.27974854 12.38288574 6.24309082 13.49975586 6.20532227 C15.939263 6.27635735 15.939263 6.27635735 17 5 C11.39 4.67 5.78 4.34 0 4 C0 2.68 0 1.36 0 0 Z " fill="#DD0808" transform="translate(10,39)"/>
<path d="M0 0 C3.15689734 1.60714774 5.19415756 2.97438234 7.375 5.75 C8.7995825 10.87849698 8.68050206 14.61282273 6.375 19.3125 C3.32638755 22.76224567 0.74115192 24.82228288 -3.98828125 25.12890625 C-7.94501193 24.88300773 -9.71592715 24.22849338 -12.875 21.6875 C-15.69858319 18.11649773 -16.81695213 16.21269216 -17.5 11.6875 C-16.83398123 6.77561156 -14.58855833 4.29106127 -11 1 C-7.52817697 -0.73591152 -3.79591036 -0.46571673 0 0 Z " fill="#F4B5B5" transform="translate(50,43)"/>
<path d="M0 0 C3.15689734 1.60714774 5.19415756 2.97438234 7.375 5.75 C8.81572656 10.93661561 8.67900093 14.64199814 6.3125 19.375 C3.93431491 22.07456145 2.42457856 23.04872818 -1 24 C-1.33 23.01 -1.66 22.02 -2 21 C-1.01 21 -0.02 21 1 21 C-0.3089572 17.87802522 -0.3089572 17.87802522 -3 16 C-3.33 16.99 -3.66 17.98 -4 19 C-4.66 17.68 -5.32 16.36 -6 15 C-5.484375 14.401875 -4.96875 13.80375 -4.4375 13.1875 C-3.963125 12.465625 -3.48875 11.74375 -3 11 C-3.33 10.01 -3.66 9.02 -4 8 C-2.5625 5.8125 -2.5625 5.8125 -1 4 C-3.475 3.01 -3.475 3.01 -6 2 C-6.33 2.66 -6.66 3.32 -7 4 C-7.99 3.67 -8.98 3.34 -10 3 C-10 3.66 -10 4.32 -10 5 C-11.98 5.99 -13.96 6.98 -16 8 C-13.06693953 0.5340279 -7.44450972 -1.31065312 0 0 Z " fill="#F9D9D9" transform="translate(50,43)"/>
<path d="M0 0 C0.66 0 1.32 0 2 0 C2 1.32 2 2.64 2 4 C3.32 4.33 4.64 4.66 6 5 C5.01 5.33 4.02 5.66 3 6 C3 6.99 3 7.98 3 9 C3.66 9 4.32 9 5 9 C5 9.66 5 10.32 5 11 C6.65 10.34 8.3 9.68 10 9 C9.70100785 12.58790575 9.23013399 13.78166776 6.5625 16.3125 C4 18 4 18 2 18 C1.67 17.01 1.34 16.02 1 15 C1.99 15 2.98 15 4 15 C2.6910428 11.87802522 2.6910428 11.87802522 0 10 C-0.33 10.99 -0.66 11.98 -1 13 C-1.66 11.68 -2.32 10.36 -3 9 C-2.2265625 8.1028125 -2.2265625 8.1028125 -1.4375 7.1875 C-0.963125 6.465625 -0.48875 5.74375 0 5 C-0.33 4.01 -0.66 3.02 -1 2 C-0.67 1.34 -0.34 0.68 0 0 Z " fill="#F8D0D0" transform="translate(47,49)"/>
<path d="M0 0 C1.875 0.25 1.875 0.25 4 1 C5.25 3.0625 5.25 3.0625 6 5 C4.71034824 6.37562854 3.37310707 7.70766393 2 9 C1.34 9 0.68 9 0 9 C0.66 9.33 1.32 9.66 2 10 C2 10.66 2 11.32 2 12 C2.66 12 3.32 12 4 12 C4 12.99 4 13.98 4 15 C0.15837998 13.75406918 -2.1145859 12.66608297 -4 9 C-3.6875 6.25 -3.6875 6.25 -3 4 C-2.67 4.99 -2.34 5.98 -2 7 C-0.35 6.34 1.3 5.68 3 5 C2.2575 4.319375 2.2575 4.319375 1.5 3.625 C0 2 0 2 0 0 Z " fill="#FBE8E8" transform="translate(38,52)"/>
<path d="M0 0 C2 2 2 2 2 5 C3.32 5.66 4.64 6.32 6 7 C5.01 8.485 5.01 8.485 4 10 C1.69 9.67 -0.62 9.34 -3 9 C-3.1875 5.625 -3.1875 5.625 -3 2 C-2.01 1.34 -1.02 0.68 0 0 Z " fill="#F7CBCB" transform="translate(36,49)"/>
<path d="M0 0 C1.32 0.66 2.64 1.32 4 2 C4 2.99 4 3.98 4 5 C3.01 5.495 3.01 5.495 2 6 C1.67 6.99 1.34 7.98 1 9 C-0.65 9 -2.3 9 -4 9 C-4 4.48700353 -3.08230784 3.08230784 0 0 Z " fill="#EF8D8D" transform="translate(47,59)"/>
<path d="M0 0 C0 0.66 0 1.32 0 2 C-1.98 2 -3.96 2 -6 2 C-6.33 2.66 -6.66 3.32 -7 4 C-7.99 3.67 -8.98 3.34 -10 3 C-10 3.66 -10 4.32 -10 5 C-11.98 5.99 -13.96 6.98 -16 8 C-12.92519669 0.17322794 -7.56495612 -0.59332989 0 0 Z " fill="#FCEDED" transform="translate(50,43)"/>
<path d="M0 0 C2.97 0 5.94 0 9 0 C9 1.32 9 2.64 9 4 C5.7 4 2.4 4 -1 4 C-0.67 2.68 -0.34 1.36 0 0 Z " fill="#DD0606" transform="translate(7,60)"/>
<path d="M0 0 C0.66 0 1.32 0 2 0 C2 1.32 2 2.64 2 4 C3.32 4.33 4.64 4.66 6 5 C5.01 5.33 4.02 5.66 3 6 C2.26676204 8.01508358 2.26676204 8.01508358 2 10 C1.34 10 0.68 10 0 10 C-0.33 10.99 -0.66 11.98 -1 13 C-1.66 11.68 -2.32 10.36 -3 9 C-2.2265625 8.1028125 -2.2265625 8.1028125 -1.4375 7.1875 C-0.963125 6.465625 -0.48875 5.74375 0 5 C-0.33 4.01 -0.66 3.02 -1 2 C-0.67 1.34 -0.34 0.68 0 0 Z " fill="#FDF3F3" transform="translate(47,49)"/>
<path d="M0 0 C2.64 0 5.28 0 8 0 C8 1.32 8 2.64 8 4 C5.36 4 2.72 4 0 4 C0 2.68 0 1.36 0 0 Z " fill="#DD0606" transform="translate(2,53)"/>
<path d="M0 0 C0.99 0 1.98 0 3 0 C2.625 2.4375 2.625 2.4375 2 5 C1.01 5.495 1.01 5.495 0 6 C-0.66 5.67 -1.32 5.34 -2 5 C-2 4.34 -2 3.68 -2 3 C-2.99 2.67 -3.98 2.34 -5 2 C-4.360625 1.855625 -3.72125 1.71125 -3.0625 1.5625 C-1.02454854 1.18992819 -1.02454854 1.18992819 0 0 Z " fill="#E22F2F" transform="translate(42,59)"/>
<path d="M0 0 C2.31 0.33 4.62 0.66 7 1 C5.68 2.65 4.36 4.3 3 6 C2.01 5.67 1.02 5.34 0 5 C0 3.35 0 1.7 0 0 Z " fill="#E02121" transform="translate(44,45)"/>
<path d="M0 0 C1.875 0.25 1.875 0.25 4 1 C5.25 3.0625 5.25 3.0625 6 5 C4.68 6.32 3.36 7.64 2 9 C1.01 8.34 0.02 7.68 -1 7 C0.32 6.34 1.64 5.68 3 5 C2.2575 4.319375 2.2575 4.319375 1.5 3.625 C0 2 0 2 0 0 Z " fill="#FEF8F8" transform="translate(38,52)"/>
<path d="M0 0 C1.65 0 3.3 0 5 0 C5 0.99 5 1.98 5 3 C3.35 3.33 1.7 3.66 0 4 C0 2.68 0 1.36 0 0 Z " fill="#E01E1E" transform="translate(36,55)"/>
<path d="M0 0 C2 0.25 2 0.25 4 1 C4.33 1.99 4.66 2.98 5 4 C3.68 4.33 2.36 4.66 1 5 C0.34 3.68 -0.32 2.36 -1 1 C-0.67 0.67 -0.34 0.34 0 0 Z " fill="#E01C1C" transform="translate(38,48)"/>
<path d="M0 0 C1.65 0 3.3 0 5 0 C5 1.32 5 2.64 5 4 C3.35 3.67 1.7 3.34 0 3 C0 2.01 0 1.02 0 0 Z " fill="#DF1717" transform="translate(50,55)"/>
<path d="M0 0 C0.99 0.33 1.98 0.66 3 1 C2.34 2.32 1.68 3.64 1 5 C0.01 5 -0.98 5 -2 5 C-1.125 1.125 -1.125 1.125 0 0 Z " fill="#DE0E0E" transform="translate(51,48)"/>
<path d="M0 0 C1.134375 0.020625 2.26875 0.04125 3.4375 0.0625 C3.4375 0.7225 3.4375 1.3825 3.4375 2.0625 C1.4575 2.0625 -0.5225 2.0625 -2.5625 2.0625 C-2.8925 2.7225 -3.2225 3.3825 -3.5625 4.0625 C-3.8925 3.0725 -4.2225 2.0825 -4.5625 1.0625 C-3.5625 0.0625 -3.5625 0.0625 0 0 Z " fill="#FEFAFA" transform="translate(46.5625,42.9375)"/>
</svg>
